<svg xmlns="http://www.w3.org/2000/svg" viewBox="0 0 764.73 522.15"><defs><style>.cls-1{fill:#2d2d2d;}.cls-2,.cls-3{fill:none;stroke-miterlimit:10;}.cls-2{stroke:#2d2d2d;stroke-width:0.5px;}.cls-3{stroke:#a5a4a4;}.cls-4{fill:#946bf9;}.cls-5{fill:#fff;}</style></defs><title>notFoundРесурс 6</title><g id="Слой_2" data-name="Слой 2"><g id="Слой_1-2" data-name="Слой 1"><circle class="cls-1" cx="70.55" cy="106.63" r="8.46"/><circle class="cls-1" cx="744.62" cy="8.46" r="8.46"/><line class="cls-2" x1="681.01" y1="8.46" x2="744.62" y2="8.46"/><circle class="cls-1" cx="8.46" cy="322.34" r="8.46"/><line class="cls-2" x1="14.84" y1="322.34" x2="124.4" y2="322.34"/><circle class="cls-1" cx="748.31" cy="189.84" r="8.46"/><line class="cls-2" x1="748.61" y1="189.47" x2="655.64" y2="189.47"/><circle class="cls-1" cx="52.11" cy="458.76" r="8.46"/><line class="cls-2" x1="185.59" y1="106.63" x2="352.83" y2="237.65"/><line class="cls-2" x1="431.83" y1="239.65" x2="680.83" y2="8.65"/><line class="cls-2" x1="124.83" y1="322.65" x2="327.83" y2="277.65"/><line class="cls-2" x1="655.83" y1="189.65" x2="456.83" y2="309.65"/><line class="cls-2" x1="185.83" y1="106.65" x2="69.83" y2="106.65"/><rect class="cls-3" x="223.83" y="18.65" width="187" height="343"/><line class="cls-2" x1="166.83" y1="458.65" x2="363.83" y2="351.65"/><polygon class="cls-3" points="223.83 18.65 372.83 178.65 559.83 178.65 410.83 18.65 223.83 18.65"/><polygon class="cls-3" points="223.83 361.65 372.83 521.65 559.83 521.65 410.83 361.65 223.83 361.65"/><line class="cls-2" x1="167.33" y1="458.65" x2="58.33" y2="458.65"/><circle class="cls-1" cx="756.27" cy="430.83" r="8.46"/><line class="cls-2" x1="756.57" y1="430.46" x2="663.6" y2="430.46"/><line class="cls-2" x1="663.83" y1="430.65" x2="429.83" y2="340.65"/><circle class="cls-4" cx="392.33" cy="294.15" r="69"/><circle class="cls-5" cx="392.33" cy="294.15" r="54"/><rect class="cls-3" x="372.83" y="178.65" width="187" height="343"/></g></g></svg>